<svg width="102" height="29" viewBox="0 0 102 29" fill="none" xmlns="http://www.w3.org/2000/svg">
<path d="M22.36 28.4C21.4267 28.4 20.5333 28.2133 19.68 27.84C18.8267 27.4667 17.9867 26.8667 17.16 26.04C16.36 25.1867 15.52 24.04 14.64 22.6L10.64 15.92H9.04V28H3.8V6.8C3.8 5.6 3.62667 4.64 3.28 3.92C2.96 3.17333 2.2 2.8 1 2.8H0.6V1.6H11.64C12.36 1.6 13.1867 1.65333 14.12 1.76C15.08 1.84 16.04 2.02666 17 2.32C17.96 2.58667 18.8533 2.98667 19.68 3.52C20.5067 4.05333 21.1733 4.76 21.68 5.64C22.1867 6.49333 22.44 7.56 22.44 8.84C22.44 10.2533 22.12 11.4133 21.48 12.32C20.8667 13.2 20.0667 13.8933 19.08 14.4C18.0933 14.9067 17.0533 15.3067 15.96 15.6L20.16 22.6C21.1733 24.3067 22.1067 25.44 22.96 26C23.8133 26.56 24.5333 26.8933 25.12 27V28C24.9067 28.1067 24.52 28.2 23.96 28.28C23.4267 28.36 22.8933 28.4 22.36 28.4ZM9.04 14.32H11.44C12.08 14.32 12.72 14.2267 13.36 14.04C14 13.8533 14.5733 13.5467 15.08 13.12C15.6133 12.6933 16.04 12.12 16.36 11.4C16.68 10.68 16.84 9.8 16.84 8.76C16.84 7.72 16.68 6.85333 16.36 6.16C16.0667 5.44 15.6533 4.86667 15.12 4.44C14.6133 3.98667 14.04 3.66667 13.4 3.48C12.7867 3.29333 12.16 3.2 11.52 3.2C11.3067 3.2 10.9867 3.21333 10.56 3.24C10.16 3.26667 9.65333 3.34667 9.04 3.48V14.32ZM35.0159 28.4C33.1493 28.4 31.5226 27.9733 30.1359 27.12C28.7493 26.2667 27.6826 25.1067 26.9359 23.64C26.1893 22.1467 25.8159 20.4667 25.8159 18.6C25.8159 16.4667 26.2026 14.68 26.9759 13.24C27.7493 11.7733 28.8026 10.6667 30.1359 9.92C31.4693 9.17333 32.9626 8.8 34.6159 8.8C36.2693 8.8 37.7626 9.13333 39.0959 9.8C40.4293 10.4667 41.4826 11.4 42.2559 12.6C43.0293 13.8 43.4159 15.2 43.4159 16.8L43.2559 19.32H31.2159C31.2159 21.96 31.6159 23.84 32.4159 24.96C33.2426 26.0533 34.3093 26.6 35.6159 26.6C37.0026 26.6 38.1226 26.28 38.9759 25.64C39.8559 25 40.6426 24.2133 41.3359 23.28L42.5759 24.2C42.2026 24.7867 41.6959 25.4133 41.0559 26.08C40.4426 26.72 39.6426 27.2667 38.6559 27.72C37.6959 28.1733 36.4826 28.4 35.0159 28.4ZM31.2159 17.52H38.0159C38.0159 14.88 37.6959 13.0667 37.0559 12.08C36.4426 11.0933 35.6293 10.6 34.6159 10.6C34.0293 10.6 33.4693 10.8133 32.9359 11.24C32.4293 11.6667 32.0159 12.3867 31.6959 13.4C31.3759 14.3867 31.2159 15.76 31.2159 17.52ZM77.7894 28.4C75.9227 28.4 74.296 27.9733 72.9094 27.12C71.5227 26.2667 70.456 25.1067 69.7094 23.64C68.9627 22.1467 68.5894 20.4667 68.5894 18.6C68.5894 16.4667 68.976 14.68 69.7494 13.24C70.5227 11.7733 71.576 10.6667 72.9094 9.92C74.2427 9.17333 75.736 8.8 77.3894 8.8C79.0427 8.8 80.536 9.13333 81.8694 9.8C83.2027 10.4667 84.256 11.4 85.0294 12.6C85.8027 13.8 86.1894 15.2 86.1894 16.8L86.0294 19.32H73.9894C73.9894 21.96 74.3894 23.84 75.1894 24.96C76.016 26.0533 77.0827 26.6 78.3894 26.6C79.776 26.6 80.896 26.28 81.7494 25.64C82.6294 25 83.416 24.2133 84.1094 23.28L85.3494 24.2C84.976 24.7867 84.4694 25.4133 83.8294 26.08C83.216 26.72 82.416 27.2667 81.4294 27.72C80.4694 28.1733 79.256 28.4 77.7894 28.4ZM73.9894 17.52H80.7894C80.7894 14.88 80.4694 13.0667 79.8294 12.08C79.216 11.0933 78.4027 10.6 77.3894 10.6C76.8027 10.6 76.2427 10.8133 75.7094 11.24C75.2027 11.6667 74.7894 12.3867 74.4694 13.4C74.1494 14.3867 73.9894 15.76 73.9894 17.52ZM96.5009 28.4C94.6876 28.4 93.2609 27.9067 92.2209 26.92C91.2076 25.9333 90.7009 24.48 90.7009 22.56V11H88.3009V9.2H90.7009V5.6L92.7009 3.2H95.9009V9.2H100.301V11H95.9009V22.8C95.9009 24.2933 96.0743 25.3067 96.4209 25.84C96.7943 26.3467 97.3143 26.6 97.9809 26.6C98.6743 26.6 99.2876 26.48 99.8209 26.24C100.354 26 100.794 25.76 101.141 25.52L101.701 26.64C101.168 27.12 100.474 27.5333 99.6209 27.88C98.7676 28.2267 97.7276 28.4 96.5009 28.4Z" fill="white"/>
<path d="M55.6075 28.68C54.5142 28.68 53.4342 28.5733 52.3675 28.36C51.3008 28.1467 50.3275 27.84 49.4475 27.44C48.5675 27.0133 47.8608 26.5067 47.3275 25.92C46.8208 25.3067 46.5675 24.6267 46.5675 23.88V19.2H47.6875C48.1142 21.9733 48.9675 23.9467 50.2475 25.12C51.5542 26.2933 53.3275 26.88 55.5675 26.88C56.5808 26.88 57.4608 26.7333 58.2075 26.44C58.9808 26.1467 59.5675 25.72 59.9675 25.16C60.3942 24.5733 60.6075 23.8533 60.6075 23C60.6075 21.8533 60.2342 20.9067 59.4875 20.16C58.7675 19.3867 57.7675 18.6133 56.4875 17.84L51.5675 14.88C49.7542 13.8133 48.4742 12.72 47.7275 11.6C46.9808 10.48 46.6075 9.18667 46.6075 7.72C46.6075 5.61333 47.4075 3.94667 49.0075 2.72C50.6342 1.49333 52.8208 0.879999 55.5675 0.879999C56.6608 0.879999 57.7408 0.986666 58.8075 1.2C59.8742 1.41333 60.8475 1.73333 61.7275 2.16C62.6075 2.56 63.3008 3.05333 63.8075 3.64C64.3408 4.22667 64.6075 4.90667 64.6075 5.68V10.36H63.4875C63.0342 7.58667 62.1808 5.61333 60.9275 4.44C59.6742 3.26667 58.0342 2.68 56.0075 2.68C55.0475 2.68 54.2075 2.84 53.4875 3.16C52.7942 3.48 52.2608 3.93333 51.8875 4.52C51.5142 5.08 51.3275 5.76 51.3275 6.56C51.3275 7.68 51.7008 8.58667 52.4475 9.28C53.2208 9.97333 54.2342 10.6933 55.4875 11.44L60.4075 14.36C62.2208 15.4267 63.5408 16.48 64.3675 17.52C65.2208 18.5333 65.6475 19.7733 65.6475 21.24C65.6475 23.5333 64.7808 25.3467 63.0475 26.68C61.3142 28.0133 58.8342 28.68 55.6075 28.68Z" fill="#CE9D34"/>
</svg>
