<svg width="54" height="53" viewBox="0 0 54 53" fill="none" xmlns="http://www.w3.org/2000/svg">
<rect x="0.5" width="53" height="53" rx="26.5" fill="white"/>
<path d="M14.944 30.16C14.5707 30.16 14.2133 30.0853 13.872 29.936C13.5307 29.7867 13.1947 29.5467 12.864 29.216C12.544 28.8747 12.208 28.416 11.856 27.84L10.256 25.168H9.616V30H7.52V21.52C7.52 21.04 7.45067 20.656 7.312 20.368C7.184 20.0693 6.88 19.92 6.4 19.92H6.24V19.44H10.656C10.944 19.44 11.2747 19.4613 11.648 19.504C12.032 19.536 12.416 19.6107 12.8 19.728C13.184 19.8347 13.5413 19.9947 13.872 20.208C14.2027 20.4213 14.4693 20.704 14.672 21.056C14.8747 21.3973 14.976 21.824 14.976 22.336C14.976 22.9013 14.848 23.3653 14.592 23.728C14.3467 24.08 14.0267 24.3573 13.632 24.56C13.2373 24.7627 12.8213 24.9227 12.384 25.04L14.064 27.84C14.4693 28.5227 14.8427 28.976 15.184 29.2C15.5253 29.424 15.8133 29.5573 16.048 29.6V30C15.9627 30.0427 15.808 30.08 15.584 30.112C15.3707 30.144 15.1573 30.16 14.944 30.16ZM9.616 24.528H10.576C10.832 24.528 11.088 24.4907 11.344 24.416C11.6 24.3413 11.8293 24.2187 12.032 24.048C12.2453 23.8773 12.416 23.648 12.544 23.36C12.672 23.072 12.736 22.72 12.736 22.304C12.736 21.888 12.672 21.5413 12.544 21.264C12.4267 20.976 12.2613 20.7467 12.048 20.576C11.8453 20.3947 11.616 20.2667 11.36 20.192C11.1147 20.1173 10.864 20.08 10.608 20.08C10.5227 20.08 10.3947 20.0853 10.224 20.096C10.064 20.1067 9.86133 20.1387 9.616 20.192V24.528ZM20.0064 30.16C19.2597 30.16 18.609 29.9893 18.0544 29.648C17.4997 29.3067 17.073 28.8427 16.7744 28.256C16.4757 27.6587 16.3264 26.9867 16.3264 26.24C16.3264 25.3867 16.481 24.672 16.7904 24.096C17.0997 23.5093 17.521 23.0667 18.0544 22.768C18.5877 22.4693 19.185 22.32 19.8464 22.32C20.5077 22.32 21.105 22.4533 21.6384 22.72C22.1717 22.9867 22.593 23.36 22.9024 23.84C23.2117 24.32 23.3664 24.88 23.3664 25.52L23.3024 26.528H18.4864C18.4864 27.584 18.6464 28.336 18.9664 28.784C19.297 29.2213 19.7237 29.44 20.2464 29.44C20.801 29.44 21.249 29.312 21.5904 29.056C21.9424 28.8 22.257 28.4853 22.5344 28.112L23.0304 28.48C22.881 28.7147 22.6784 28.9653 22.4224 29.232C22.177 29.488 21.857 29.7067 21.4624 29.888C21.0784 30.0693 20.593 30.16 20.0064 30.16ZM18.4864 25.808H21.2064C21.2064 24.752 21.0784 24.0267 20.8224 23.632C20.577 23.2373 20.2517 23.04 19.8464 23.04C19.6117 23.04 19.3877 23.1253 19.1744 23.296C18.9717 23.4667 18.8064 23.7547 18.6784 24.16C18.5504 24.5547 18.4864 25.104 18.4864 25.808ZM37.1158 30.16C36.3691 30.16 35.7184 29.9893 35.1638 29.648C34.6091 29.3067 34.1824 28.8427 33.8838 28.256C33.5851 27.6587 33.4358 26.9867 33.4358 26.24C33.4358 25.3867 33.5904 24.672 33.8997 24.096C34.2091 23.5093 34.6304 23.0667 35.1638 22.768C35.6971 22.4693 36.2944 22.32 36.9557 22.32C37.6171 22.32 38.2144 22.4533 38.7478 22.72C39.2811 22.9867 39.7024 23.36 40.0118 23.84C40.3211 24.32 40.4758 24.88 40.4758 25.52L40.4118 26.528H35.5958C35.5958 27.584 35.7558 28.336 36.0758 28.784C36.4064 29.2213 36.8331 29.44 37.3558 29.44C37.9104 29.44 38.3584 29.312 38.6998 29.056C39.0518 28.8 39.3664 28.4853 39.6438 28.112L40.1398 28.48C39.9904 28.7147 39.7878 28.9653 39.5318 29.232C39.2864 29.488 38.9664 29.7067 38.5718 29.888C38.1878 30.0693 37.7024 30.16 37.1158 30.16ZM35.5958 25.808H38.3158C38.3158 24.752 38.1878 24.0267 37.9318 23.632C37.6864 23.2373 37.3611 23.04 36.9557 23.04C36.7211 23.04 36.4971 23.1253 36.2838 23.296C36.0811 23.4667 35.9158 23.7547 35.7878 24.16C35.6598 24.5547 35.5958 25.104 35.5958 25.808ZM44.6004 30.16C43.875 30.16 43.3044 29.9627 42.8884 29.568C42.483 29.1733 42.2804 28.592 42.2804 27.824V23.2H41.3204V22.48H42.2804V21.04L43.0804 20.08H44.3604V22.48H46.1204V23.2H44.3604V27.92C44.3604 28.5173 44.4297 28.9227 44.5684 29.136C44.7177 29.3387 44.9257 29.44 45.1924 29.44C45.4697 29.44 45.715 29.392 45.9284 29.296C46.1417 29.2 46.3177 29.104 46.4564 29.008L46.6804 29.456C46.467 29.648 46.1897 29.8133 45.8484 29.952C45.507 30.0907 45.091 30.16 44.6004 30.16Z" fill="#2A3AA2"/>
<path d="M28.243 30.272C27.8057 30.272 27.3737 30.2293 26.947 30.144C26.5203 30.0587 26.131 29.936 25.779 29.776C25.427 29.6053 25.1443 29.4027 24.931 29.168C24.7283 28.9227 24.627 28.6507 24.627 28.352V26.48H25.075C25.2457 27.5893 25.587 28.3787 26.099 28.848C26.6217 29.3173 27.331 29.552 28.227 29.552C28.6323 29.552 28.9843 29.4933 29.283 29.376C29.5923 29.2587 29.827 29.088 29.987 28.864C30.1577 28.6293 30.243 28.3413 30.243 28C30.243 27.5413 30.0937 27.1627 29.795 26.864C29.507 26.5547 29.107 26.2453 28.595 25.936L26.627 24.752C25.9017 24.3253 25.3897 23.888 25.091 23.44C24.7923 22.992 24.643 22.4747 24.643 21.888C24.643 21.0453 24.963 20.3787 25.603 19.888C26.2537 19.3973 27.1283 19.152 28.227 19.152C28.6643 19.152 29.0963 19.1947 29.523 19.28C29.9497 19.3653 30.339 19.4933 30.691 19.664C31.043 19.824 31.3203 20.0213 31.523 20.256C31.7363 20.4907 31.843 20.7627 31.843 21.072V22.944H31.395C31.2137 21.8347 30.8723 21.0453 30.371 20.576C29.8697 20.1067 29.2137 19.872 28.403 19.872C28.019 19.872 27.683 19.936 27.395 20.064C27.1177 20.192 26.9043 20.3733 26.755 20.608C26.6057 20.832 26.531 21.104 26.531 21.424C26.531 21.872 26.6803 22.2347 26.979 22.512C27.2883 22.7893 27.6937 23.0773 28.195 23.376L30.163 24.544C30.8883 24.9707 31.4163 25.392 31.747 25.808C32.0883 26.2133 32.259 26.7093 32.259 27.296C32.259 28.2133 31.9123 28.9387 31.219 29.472C30.5257 30.0053 29.5337 30.272 28.243 30.272Z" fill="#CE9D34"/>
</svg>
